<svg width="613.000000" height="457.000000" viewBox="0 0 613 457" fill="none" xmlns="http://www.w3.org/2000/svg" xmlns:xlink="http://www.w3.org/1999/xlink">
	<desc>
			Created with Pixso.
	</desc>
	<defs/>
	<path id="Path" d="M28.84 -0.31C9.65 11.19 -1.16 33.65 -0.53 55.75C0.12 78.63 13.96 98.19 34.83 107.3C54.97 116.08 80.15 114.9 97.46 100.48C113.65 86.99 122.89 61.06 106.96 43.69C93.51 29.02 67.57 26.59 52.55 40.09C37.52 53.59 36.13 77.56 45.52 94.66C57.38 116.23 83.96 121.33 106.51 120.83C133.84 120.27 162.98 111.66 189.3 122.8C210.06 131.58 225.38 151.03 230.97 172.69C233.84 183.52 233.96 194.89 231.33 205.78C228.36 217.63 220.48 229.59 209.05 234.73C196.35 240.46 183.48 233.58 178.23 221.24C172.46 207.66 176.76 192.63 181.18 179.34C189.63 153.96 202.4 127.22 225.71 112.36C246.37 99.24 275.56 96.24 294.78 113.65C316.58 133.38 316.81 165.69 309.75 192.03C305.92 206.32 300.27 220.09 294.76 233.79C289.16 247.73 283.46 261.63 278.52 275.83C269.18 302.75 262.65 331.03 265.43 359.68C268.04 386.56 278.88 412.73 300.16 430.09C319.97 446.29 345.6 453.76 370.77 455.57C402.23 457.88 433.68 452.3 464.73 447.97L564.29 434.11L612.03 427.46C613.06 427.31 612.96 425.7 611.94 425.83L513.57 439.53C481.57 443.99 449.57 449.17 417.44 452.57C388.83 455.59 359.21 455.89 331.83 445.89C319.7 441.46 308.2 435.1 298.5 426.51C288.01 417.09 279.88 405.33 274.76 392.2C252.08 335.18 279.9 276.14 300.68 223.33C310.57 198.17 320.17 170.63 313.45 143.36C310.55 131.57 304.67 120.21 295.51 112.09C287.13 104.79 276.56 100.51 265.47 99.92C241.47 98.41 219.35 111.17 204.67 129.47C196.47 139.72 190.28 151.44 185.3 163.52C180.22 175.86 175.08 189.27 173.99 202.67C173.07 214.07 176.26 226.66 185.77 233.86C194.28 240.3 205.2 239.53 213.88 233.92C232.78 221.69 237.61 196.68 233.37 175.92C229.16 155.33 216.29 136.37 198.22 125.51C175.22 111.71 148.01 115.77 122.68 118.15C98.69 120.41 68.42 120.77 51.41 100.43C37.83 84.18 37.17 56.75 53.08 41.8C69.14 26.68 99.62 31.34 110.14 50.91C122.76 74.36 101.62 101.24 79.61 108.44C57.59 115.63 31.35 108.79 15.51 91.84C-0.96 74.2 -2.74 47.3 7.39 26.03C12.21 15.68 19.99 6.99 29.74 1.06C30.65 0.52 29.72 -0.82 28.84 -0.31Z" fill="#FF4C0D" fill-opacity="1.000000" fill-rule="nonzero"/>
</svg>
