<svg width="1016.000000" height="756.000000" viewBox="0 0 1016 756" fill="none" xmlns="http://www.w3.org/2000/svg" xmlns:xlink="http://www.w3.org/1999/xlink">
	<desc>
			Created with Pixso.
	</desc>
	<defs/>
	<path id="Path" d="M47.98 -0.44C16.17 18.63 -1.74 55.85 -0.7 92.46C0.38 130.39 23.32 162.8 57.9 177.9C91.28 192.45 133 190.5 161.69 166.6C188.52 144.24 203.84 101.27 177.44 72.48C155.14 48.18 112.16 44.14 87.26 66.51C62.35 88.88 60.05 128.61 75.62 156.95C95.28 192.7 139.33 201.15 176.7 200.32C221.99 199.4 270.27 185.13 313.9 203.58C348.3 218.13 373.69 250.38 382.95 286.26C387.7 304.21 387.91 323.06 383.55 341.1C378.62 360.74 365.56 380.56 346.63 389.09C325.57 398.58 304.25 387.18 295.54 366.73C285.99 344.23 293.11 319.31 300.44 297.29C314.44 255.23 335.6 210.91 374.24 186.29C408.47 164.53 456.84 159.57 488.71 188.42C524.83 221.12 525.21 274.66 513.52 318.32C507.17 342 497.8 364.81 488.67 387.53C479.39 410.62 469.94 433.67 461.75 457.2C446.27 501.81 435.46 548.67 440.07 596.15C444.38 640.7 462.34 684.08 497.63 712.85C530.44 739.69 572.92 752.07 614.64 755.08C666.78 758.89 718.9 749.64 770.35 742.48L935.35 719.5L1014.48 708.48C1016.18 708.24 1016.02 705.57 1014.32 705.79L851.29 728.48C798.25 735.87 745.24 744.47 691.98 750.1C644.57 755.1 595.48 755.61 550.1 739.03C530 731.69 510.94 721.15 494.86 706.92C477.49 691.3 464.01 671.82 455.53 650.05C417.93 555.56 464.05 457.71 498.48 370.19C514.87 328.49 530.78 282.85 519.64 237.66C514.83 218.12 505.09 199.3 489.9 185.83C476.02 173.74 458.5 166.65 440.13 165.67C400.35 163.16 363.69 184.31 339.36 214.65C325.78 231.63 315.51 251.04 307.26 271.06C298.85 291.52 290.32 313.75 288.53 335.95C287.01 354.85 292.28 375.71 308.05 387.65C322.14 398.31 340.25 397.04 354.63 387.74C385.96 367.48 393.95 326.03 386.93 291.62C379.96 257.5 358.62 226.07 328.68 208.08C290.56 185.21 245.47 191.93 203.49 195.88C163.74 199.63 113.57 200.23 85.38 166.51C62.87 139.58 61.77 94.13 88.14 69.35C114.76 44.29 165.27 52.02 182.7 84.45C203.62 123.3 168.59 167.86 132.11 179.79C95.62 191.71 52.13 180.36 25.89 152.28C-1.41 123.04 -4.36 78.46 12.42 43.21C20.42 26.06 33.31 11.67 49.47 1.83C50.97 0.93 49.44 -1.28 47.98 -0.44Z" fill="#FF4C0D" fill-opacity="1.000000" fill-rule="nonzero"/>
</svg>
