<svg width="1666.000000" height="813.000000" viewBox="0 0 1666 813" fill="none" xmlns="http://www.w3.org/2000/svg" xmlns:xlink="http://www.w3.org/1999/xlink">
	<desc>
			Created with Pixso.
	</desc>
	<defs/>
	<path id="Path" d="M-0.91 154.9C-2.22 99.53 30.47 47.21 77.53 19.31C126.28 -9.6 185.49 -6.51 232.15 25.1C277.16 55.64 307.99 109.86 300.72 165.14C293.91 216.86 251.88 270.49 194.47 260.14C145.99 251.39 106.6 200.36 114.96 151.06C123.33 101.77 171.65 67.16 219.85 64.19C280.67 60.48 326.49 109.34 355.27 157.18C390.24 215.09 410.76 287.44 468.87 327.78C514.69 359.6 575.67 365.92 628.36 348.96C654.81 340.64 678.77 325.86 698.06 305.96C718.93 284.07 733.52 251.77 729.19 221.06C724.37 186.9 692.95 169.08 660.18 174.41C624.16 180.31 598.38 209.18 576.43 236.01C534.51 287.25 495.44 349.33 495.2 417.75C495.05 478.33 527.4 543.35 589.24 560.56C659.35 580.07 727.25 537.82 773.02 488.22C797.85 461.3 819.18 431.27 840.57 401.62C862.32 371.47 883.87 341.15 907.04 312.02C951 256.88 1001.54 205.84 1065.16 173.76C1124.84 143.66 1193.93 131.71 1258.41 153.29C1318.48 173.3 1368 217.05 1405.1 267.31C1451.52 330.09 1481.45 403.27 1513.46 473.93L1616.14 700.58L1665.37 809.26C1666.43 811.59 1662.92 813.53 1661.84 811.21L1560.39 587.29C1527.39 514.44 1495.94 440.64 1460.54 368.92C1429.02 305.08 1390.48 242.7 1333.33 198.65C1308.02 179.13 1279.52 163.48 1248.71 154.54C1215.13 145.07 1179.79 143.61 1145.53 150.27C996.24 178.22 909.52 314.52 826.51 427.83C786.95 481.81 742.03 538.32 676.09 560.31C647.59 569.84 616.05 572.56 586.93 564.14C560.59 556.26 537.65 539.81 521.75 517.39C486.85 469.18 484.29 406.01 503.16 351.1C513.76 320.4 530.08 291.94 548.77 265.55C567.88 238.6 589.14 210.1 615.73 190.12C638.37 173.11 668.92 163.13 696.57 173.5C721.28 182.78 734.13 206.66 733.87 232.24C733.29 287.95 687.34 331.12 638.3 349.72C589.66 368.14 532.96 366.29 486.35 342.86C427.06 312.98 399.55 250.69 371.04 194.55C344.06 141.37 304.76 77.56 239.71 68.89C187.74 61.95 129.5 96.84 119.25 149.9C108.86 203.51 158.92 261.1 213.78 257.24C279.52 252.63 307.82 172.85 293.76 117.28C279.69 61.7 230.66 15.86 174.26 5.14C115.56 -5.99 56.93 25.87 25.82 75.17C10.56 98.96 2.67 126.73 3.16 154.97C3.22 157.59 -0.8 157.42 -0.91 154.9Z" fill="#FF4C0D" fill-opacity="1.000000" fill-rule="nonzero"/>
</svg>
