<svg width="436.000000" height="1207.000000" viewBox="0 0 436 1207" fill="none" xmlns="http://www.w3.org/2000/svg" xmlns:xlink="http://www.w3.org/1999/xlink">
	<desc>
			Created with Pixso.
	</desc>
	<defs/>
	<path id="Path" d="M345.94 9.07C312.47 -6.9 271.55 -1.26 241.61 19.85C210.59 41.72 196.26 78.74 202.79 115.9C209.12 151.77 233.8 185.46 269.57 196.16C303.03 206.17 347.31 195.18 356.71 157.27C364.65 125.26 344.26 87.2 311.85 78.81C279.44 70.42 245.06 90.46 230.05 119.1C211.11 155.24 228.42 196.62 249.76 227.3C275.56 264.54 314.14 296.89 322.87 343.45C329.76 380.16 316.92 419.14 292.12 446.69C279.79 460.57 264.2 471.16 246.76 477.5C227.67 484.25 203.93 484.32 186.36 473.25C166.81 460.95 164.53 436.87 176.76 418.32C190.23 397.92 214.93 390.08 237.34 384.02C280.13 372.45 328.76 365.59 370.63 384.18C407.68 400.68 438.55 438.26 432.12 480.76C424.83 528.94 380.42 558.84 337.57 573.22C314.33 581.02 290.14 585.82 266.16 590.77C241.79 595.8 217.36 600.66 193.22 606.84C147.48 618.59 102.46 635.48 65.43 665.56C30.69 693.78 4.47 732.72 -0.01 778.03C-4.24 820.21 8.92 862.45 29.46 898.88C55.1 944.44 91.62 982.77 126.02 1021.69L236.36 1146.51L289.28 1206.36C290.42 1207.65 292.56 1206.03 291.44 1204.74L182.42 1081.41C146.95 1041.3 110.48 1001.87 76.36 960.59C45.99 923.84 18.43 883.21 7.17 836.22C2.18 815.42 0.43 793.71 3.41 772.44C6.82 749.33 15.61 727.34 29.06 708.23C87.03 624.68 194.06 609.04 286.03 589.36C329.84 579.97 376.68 568.01 408.17 533.75C421.8 518.95 432.1 500.42 434.93 480.32C437.34 462.07 433.57 443.55 424.23 427.7C404.34 393.16 366.45 374.3 327.72 370.78C306.06 368.85 284.21 371.03 262.97 375.22C241.26 379.51 218.03 384.69 198.54 395.46C181.94 404.64 167.47 420.56 166.24 440.3C165.14 457.94 176.21 472.33 191.91 479.18C226.11 494.09 265.06 477.84 289.86 452.97C314.44 428.3 328.85 393.15 327.29 358.26C325.28 313.85 294.76 279.98 268.27 247.18C243.17 216.12 214.95 174.64 227.47 132.52C237.47 98.87 274.74 72.84 309.97 81.11C345.56 89.45 367.04 135.81 349.65 168.27C328.83 207.17 272.33 202.61 242.23 178.8C212.13 154.98 197.55 112.46 206.45 75.07C215.74 36.16 251.26 9.06 289.9 3.56C308.62 0.75 327.74 3.54 344.87 11.58C346.45 12.33 347.44 9.82 345.94 9.07Z" fill="#FF4C0D" fill-opacity="1.000000" fill-rule="nonzero"/>
</svg>
