<svg width="1188.000000" height="737.000000" viewBox="0 0 1188 737" fill="none" xmlns="http://www.w3.org/2000/svg" xmlns:xlink="http://www.w3.org/1999/xlink">
	<desc>
			Created with Pixso.
	</desc>
	<defs/>
	<path id="Path" d="M1187.84 72.03C1166.07 21.61 1108.93 -10.2 1054.73 2.98C1028.35 9.41 1005.04 24.82 988.79 46.57C972.85 68.49 966.02 95.73 969.71 122.59C973.11 148.46 985.53 173.5 1005.66 190.41C1024.18 205.99 1050.52 213.97 1074.42 208.58C1099.18 202.94 1115.23 181.77 1116.35 156.76C1117.57 129.32 1103.93 102.72 1085.02 83.67C1065.06 63.7 1037.51 51 1009.02 56.23C980.53 61.45 961.95 83.69 957.7 111.75C952.67 144.84 965.72 176.32 971.66 208.33C976.8 236.38 974.25 265.3 964.29 292.02C945.28 343.69 901.01 387.07 846.89 400.08C817.27 407.19 782.71 405.68 757.41 387.1C734.37 370.19 724.63 339.79 730.24 312.19C735.9 284.31 757.27 263.81 784.97 258.01C812.42 252.28 842.23 261.47 858.94 284.59C874.98 306.74 877.84 337 869.06 362.56C859.37 390.57 835.14 411.07 807.73 420.85C745.64 442.82 681.94 409.39 642.24 361.92C600.65 312.22 580.59 249.16 543.8 196.36C512.08 150.81 460.51 106.63 401.45 110.31C342.96 113.89 302.07 164.28 284.07 216.05C261.13 281.98 264.81 353.82 245.03 420.58C227.28 480.5 187.19 540.43 122.36 554.61C92.89 561.35 61.96 554.42 38.18 535.75C16.13 518.43 0.53 491.34 3.48 462.67C6.51 432.99 28.49 407.65 55.18 395.76C86.99 381.62 125.06 386.25 155.45 401.82C204.38 426.91 235.44 481.41 235.44 536.02C235.32 600.49 189.1 652.36 138.01 685.99C109.64 704.64 78.95 719.3 48.31 733.82C46.33 734.75 48.05 737.69 50.04 736.84C109.89 708.36 172.96 677.8 211.2 621.13C227.28 597.33 237.71 569.8 238.76 540.88C239.48 514.45 233.51 488.26 221.4 464.76C195.57 413.96 140.69 377.49 82.34 384.92C54.35 388.48 28.49 403.5 12.92 427.31C-1.78 449.41 -4.1 477.5 6.77 501.7C17.72 526.08 39.62 545.05 64.44 554.4C90.79 564.35 119.99 561.56 145.62 550.74C204.69 525.79 237.09 466.97 252.15 407.5C260.66 373.93 264.47 339.52 268.94 305.24C273.64 269.13 279.37 232.23 294.56 198.8C306.94 171.55 325.96 146.34 351.46 130.22C377.61 113.68 409.62 109.23 439.29 117.98C502.16 136.15 541.53 193.53 570.58 248.19C600.3 304.12 627.27 365.01 681.13 402.29C706.01 419.52 735.64 431.05 766.2 431.24C793.89 431.42 821.95 422.39 843.44 404.73C864.14 387.87 876.54 362.89 877.44 336.22C878.25 311.54 869.21 285.89 849.93 269.79C830.66 253.7 803.34 249.36 779.45 255.82C754.94 262.47 735.54 280.62 728.45 305.13C721.57 328.89 725.95 356.14 741.1 375.87C758.83 398.99 789.01 407.83 817.15 407.31C871.45 406.3 920.84 373.35 949.75 328.58C964.33 306.22 973.58 280.81 976.79 254.31C978.32 240.89 978.08 227.33 976.07 213.97C973.3 195.58 967.65 177.79 963.79 159.62C957.23 128.72 956.71 88.97 986.03 69.05C1014.36 49.79 1051.15 58.77 1075.68 79.65C1098.4 99.06 1115.65 129.23 1112.71 159.97C1111.31 174.47 1104.43 188.26 1092.43 196.86C1081.31 204.84 1067.31 207.46 1053.81 206.54C991.65 202 958.77 129.6 977.57 74.91C987.5 46.08 1011.27 23.04 1039.28 11.5C1067.42 -0.06 1099.12 0.79 1126.6 13.83C1152.65 26.07 1173.37 47.37 1184.89 73.74C1185.77 75.76 1188.71 74.01 1187.84 72.03Z" fill="#FF4C0D" fill-opacity="1.000000" fill-rule="nonzero"/>
</svg>
