<svg width="873.000000" height="541.000000" viewBox="0 0 873 541" fill="none" xmlns="http://www.w3.org/2000/svg" xmlns:xlink="http://www.w3.org/1999/xlink">
	<desc>
			Created with Pixso.
	</desc>
	<defs/>
	<path id="Path" d="M872.88 52.87C856.89 15.86 814.9 -7.49 775.06 2.18C755.68 6.91 738.55 18.22 726.61 34.18C714.9 50.28 709.87 70.27 712.59 89.98C715.09 108.98 724.22 127.36 739.01 139.77C752.62 151.21 771.97 157.07 789.53 153.11C807.73 148.96 819.52 133.43 820.34 115.07C821.24 94.93 811.22 75.4 797.32 61.42C782.66 46.76 762.41 37.44 741.48 41.27C720.54 45.11 706.89 61.43 703.76 82.03C700.07 106.32 709.66 129.43 714.02 152.92C717.8 173.51 715.93 194.74 708.6 214.36C694.64 252.29 662.11 284.13 622.33 293.68C600.57 298.9 575.17 297.79 556.58 284.15C539.65 271.74 532.5 249.42 536.61 229.16C540.77 208.7 556.48 193.65 576.83 189.4C597.01 185.18 618.91 191.93 631.19 208.9C642.98 225.16 645.08 247.38 638.63 266.14C631.5 286.7 613.7 301.75 593.56 308.93C547.93 325.05 501.12 300.51 471.95 265.67C441.39 229.18 426.64 182.9 399.61 144.14C376.3 110.7 338.4 78.27 295 80.97C252.03 83.6 221.98 120.59 208.75 158.59C191.89 206.99 194.59 259.73 180.06 308.73C167.02 352.72 137.56 396.7 89.92 407.12C68.26 412.06 45.53 406.97 28.05 393.27C11.85 380.56 0.39 360.67 2.56 339.62C4.78 317.84 20.93 299.24 40.55 290.51C63.92 280.13 91.9 283.53 114.23 294.96C150.19 313.37 173.01 353.38 173.01 393.47C172.92 440.79 138.96 478.87 101.41 503.55C80.57 517.24 58.01 528 35.5 538.66C34.04 539.35 35.31 541.51 36.77 540.88C80.75 519.98 127.1 497.54 155.2 455.94C167.02 438.47 174.68 418.26 175.45 397.04C175.98 377.63 171.6 358.41 162.7 341.16C143.71 303.87 103.38 277.1 60.5 282.55C39.94 285.17 20.93 296.19 9.49 313.67C-1.31 329.89 -3.01 350.51 4.97 368.27C13.02 386.17 29.11 400.09 47.35 406.96C66.71 414.26 88.17 412.22 107.01 404.27C150.41 385.96 174.23 342.78 185.29 299.12C191.54 274.48 194.35 249.22 197.63 224.06C201.08 197.55 205.3 170.47 216.46 145.93C225.55 125.93 239.53 107.42 258.27 95.58C277.48 83.45 301.01 80.18 322.81 86.6C369.01 99.94 397.94 142.06 419.29 182.18C441.13 223.24 460.95 267.94 500.52 295.3C518.81 307.95 540.59 316.42 563.04 316.55C583.39 316.68 604.01 310.06 619.8 297.09C635.01 284.72 644.12 266.38 644.78 246.8C645.38 228.68 638.74 209.86 624.57 198.04C610.4 186.23 590.33 183.04 572.78 187.79C554.76 192.66 540.51 205.99 535.3 223.98C530.25 241.42 533.46 261.43 544.59 275.91C557.62 292.88 579.8 299.37 600.48 298.99C640.39 298.25 676.67 274.06 697.92 241.2C708.64 224.78 715.44 206.13 717.79 186.67C718.92 176.82 718.74 166.87 717.26 157.07C715.22 143.56 711.07 130.5 708.24 117.17C703.42 94.48 703.04 65.31 724.58 50.68C745.39 36.55 772.43 43.14 790.46 58.46C807.16 72.71 819.83 94.86 817.67 117.42C816.65 128.07 811.58 138.2 802.77 144.51C794.59 150.37 784.31 152.29 774.39 151.61C728.71 148.28 704.55 95.13 718.36 54.99C725.66 33.82 743.12 16.91 763.71 8.44C784.39 -0.04 807.69 0.58 827.88 10.15C847.02 19.14 862.24 34.77 870.71 54.13C871.36 55.61 873.51 54.33 872.88 52.87Z" fill="#FF4C0D" fill-opacity="1.000000" fill-rule="nonzero"/>
</svg>
