<svg width="1189.000000" height="737.000000" viewBox="0 0 1189 737" fill="none" xmlns="http://www.w3.org/2000/svg" xmlns:xlink="http://www.w3.org/1999/xlink">
	<desc>
			Created with Pixso.
	</desc>
	<defs/>
	<path id="Path" d="M0.15 72.03C21.91 21.61 79.05 -10.2 133.27 2.98C159.64 9.41 182.95 24.82 199.2 46.57C215.14 68.49 221.98 95.73 218.28 122.59C214.88 148.46 202.46 173.5 182.33 190.41C163.81 205.99 137.48 213.97 113.58 208.58C88.8 202.94 72.77 181.77 71.65 156.76C70.42 129.32 84.06 102.72 102.98 83.67C122.92 63.7 150.49 51 178.97 56.23C207.46 61.45 226.04 83.69 230.29 111.75C235.32 144.84 222.27 176.32 216.33 208.33C211.19 236.38 213.74 265.3 223.71 292.02C242.71 343.69 286.98 387.07 341.1 400.08C370.72 407.19 405.28 405.68 430.59 387.1C453.62 370.19 463.36 339.79 457.75 312.19C452.09 284.31 430.72 263.81 403.02 258.01C375.57 252.28 345.77 261.47 329.05 284.59C313.01 306.74 310.15 337 318.93 362.56C328.62 390.57 352.85 411.07 380.26 420.85C442.35 442.82 506.05 409.39 545.75 361.92C587.34 312.22 607.4 249.16 644.19 196.36C675.92 150.81 727.48 106.63 786.54 110.31C845.03 113.9 885.92 164.28 903.92 216.05C926.86 281.98 923.18 353.82 942.96 420.58C960.71 480.5 1000.8 540.43 1065.63 554.61C1095.1 561.35 1126.04 554.42 1149.81 535.75C1171.87 518.43 1187.46 491.34 1184.51 462.67C1181.48 432.99 1159.51 407.65 1132.81 395.76C1101.01 381.62 1062.93 386.25 1032.54 401.82C983.61 426.91 952.55 481.41 952.55 536.02C952.67 600.49 998.89 652.36 1049.99 685.99C1078.35 704.64 1109.05 719.3 1139.68 733.82C1141.67 734.75 1139.93 737.69 1137.96 736.84C1078.11 708.36 1015.04 677.8 976.79 621.13C960.71 597.33 950.28 569.8 949.23 540.88C948.51 514.45 954.48 488.26 966.59 464.76C992.42 413.96 1047.31 377.49 1105.66 384.92C1133.64 388.48 1159.51 403.5 1175.07 427.31C1189.77 449.41 1192.09 477.5 1181.22 501.7C1170.28 526.08 1148.38 545.05 1123.56 554.4C1097.21 564.35 1068.01 561.56 1042.37 550.74C983.31 525.79 950.9 466.97 935.84 407.5C927.33 373.93 923.52 339.52 919.05 305.24C914.36 269.13 908.62 232.23 893.43 198.8C881.05 171.55 862.03 146.34 836.53 130.22C810.38 113.68 778.37 109.23 748.7 117.98C685.84 136.15 646.46 193.53 617.42 248.19C587.69 304.12 560.72 365.01 506.87 402.29C481.98 419.52 452.35 431.05 421.79 431.24C394.1 431.42 366.04 422.39 344.55 404.73C323.85 387.87 311.45 362.89 310.56 336.22C309.74 311.54 318.78 285.89 338.06 269.79C357.34 253.7 384.65 249.36 408.54 255.82C433.05 262.47 452.45 280.62 459.54 305.13C466.42 328.89 462.04 356.14 446.9 375.87C429.16 398.99 398.98 407.83 370.84 407.31C316.54 406.3 267.15 373.35 238.24 328.58C223.66 306.22 214.41 280.81 211.2 254.31C209.67 240.89 209.91 227.33 211.92 213.97C214.7 195.58 220.34 177.79 224.21 159.62C230.76 128.72 231.28 88.97 201.96 69.05C173.64 49.79 136.84 58.77 112.31 79.65C89.59 99.06 72.34 129.23 75.28 159.97C76.67 174.47 83.56 188.26 95.56 196.86C106.69 204.84 120.68 207.46 134.17 206.54C196.34 202 229.22 129.6 210.42 74.91C200.49 46.08 176.73 23.04 148.71 11.5C120.58 -0.06 88.87 0.79 61.39 13.83C35.34 26.07 14.63 47.37 3.11 73.74C2.23 75.76 -0.71 74.01 0.15 72.03Z" fill="#FF4C0D" fill-opacity="1.000000" fill-rule="nonzero"/>
</svg>
