<svg width="1313.000000" height="461.000000" viewBox="0 0 1313 461" fill="none" xmlns="http://www.w3.org/2000/svg" xmlns:xlink="http://www.w3.org/1999/xlink">
	<desc>
			Created with Pixso.
	</desc>
	<defs/>
	<path id="Path" d="M1312.36 295.49C1313.33 240.58 1274.39 188.04 1219.56 177.68C1192.89 172.67 1165.3 177.09 1141.53 190.2C1117.97 203.6 1100.5 225.6 1092.79 251.58C1085.23 276.56 1086.21 304.5 1097.56 328.2C1108.02 350.03 1128.72 368.16 1152.71 373.11C1177.61 378.18 1200.94 365.51 1212.29 343.19C1224.72 318.7 1223.26 288.84 1213.88 263.69C1203.94 237.27 1184.07 214.33 1155.97 207.34C1127.87 200.35 1101.77 212.95 1086.31 236.76C1068.09 264.83 1067 298.89 1059.21 330.5C1052.32 358.17 1038.07 383.47 1017.98 403.7C979.35 442.94 921.13 464.2 866.46 453.73C836.54 448 805.69 432.37 790.29 405.01C776.28 380.1 779.95 348.39 796.44 325.55C813.09 302.5 841.01 292.63 868.64 298.77C896.02 304.87 919.38 325.53 925.07 353.49C930.55 380.28 920.68 409.03 902.13 428.69C881.75 450.21 851.23 458.9 822.22 456.5C756.6 450.91 712.36 394.19 695.76 334.57C678.37 272.14 686.1 206.42 674.36 143.15C664.25 88.57 635.49 27.05 580.17 6.05C525.41 -14.8 467.38 14.24 429.63 53.97C381.53 104.58 355.26 171.54 309.71 224.2C268.83 271.47 207.6 309.53 142.69 295.72C113.06 289.7 87.74 270.63 73.77 243.82C60.83 218.94 57.79 187.84 72.31 162.93C87.3 137.14 117.77 123.12 147 123.3C181.8 123.53 214.57 143.45 235.84 170.17C270.07 213.2 275.89 275.66 253.37 325.42C226.67 384.1 163.17 412.29 102.76 421.85C69.23 427.15 35.22 427.84 1.32 428.43C-0.87 428.47 -0.51 431.86 1.65 431.9C67.91 430.64 137.98 428.8 196.19 392.95C220.65 377.9 241.51 357.12 254.39 331.21C265.95 307.43 271.31 281.11 269.97 254.7C267.38 197.77 232.43 141.91 176.2 124.62C149.24 116.32 119.48 119.34 95.48 134.61C72.98 148.68 59.28 173.31 59.2 199.84C59.13 226.57 71.25 252.88 90 271.64C109.91 291.57 137.65 301.07 165.48 301.78C229.57 303.41 283.35 263.19 321.59 215.22C343.19 188.15 360.86 158.37 379.06 128.99C398.23 98.03 418.68 66.78 446.3 42.59C468.81 22.86 496.53 7.74 526.42 3.57C557.06 -0.71 588.06 8.43 611.48 28.65C661.25 71.12 673.46 139.64 677.38 201.41C681.4 264.62 680.85 331.22 714.54 387.38C730.1 413.34 752.34 436.07 780.11 448.84C805.25 460.42 834.54 463.77 861.4 456.54C887.21 449.73 908.81 432.08 920.63 408.15C931.55 386 933.89 358.91 922.97 336.3C912.04 313.69 888.94 298.46 864.52 294.5C839.44 290.44 814.29 298.98 797.72 318.39C781.66 337.2 774.41 363.83 780.07 388.05C786.69 416.42 810.54 436.92 836.38 448.06C886.27 469.53 944.85 459.88 989.65 431.02C1012.16 416.66 1031.06 397.33 1044.93 374.5C1051.86 362.91 1057.23 350.46 1060.9 337.46C1065.96 319.56 1068.15 301.02 1072.13 282.88C1078.9 252.02 1094.81 215.6 1129.74 209.54C1163.48 203.68 1193.31 227.03 1207.04 256.17C1219.73 283.22 1223 317.82 1207.65 344.61C1200.4 357.25 1188.43 366.98 1173.96 369.86C1160.53 372.54 1146.69 369.16 1134.79 362.75C1080.03 332.98 1079.93 253.46 1119.61 211.39C1140.55 189.23 1171.69 178.03 1201.98 179.08C1232.38 180.15 1260.92 194 1280.56 217.21C1299.26 239.11 1309.35 267.05 1308.96 295.83C1308.93 298.02 1312.33 297.65 1312.36 295.49Z" fill="#FF4C0D" fill-opacity="1.000000" fill-rule="nonzero"/>
</svg>
